<?xml version="1.0" encoding="UTF-8" standalone="no"?>
<svg
   xmlns:dc="http://purl.org/dc/elements/1.1/"
   xmlns:cc="http://creativecommons.org/ns#"
   xmlns:rdf="http://www.w3.org/1999/02/22-rdf-syntax-ns#"
   xmlns:svg="http://www.w3.org/2000/svg"
   xmlns="http://www.w3.org/2000/svg"
   height="630"
   width="1120"
   version="1.1"
   id="svg4227"
   viewBox="0 0 1120 630">
  <metadata
     id="metadata4237">
    <rdf:RDF>
      <cc:Work
         rdf:about="">
        <dc:format>image/svg+xml</dc:format>
        <dc:type
           rdf:resource="http://purl.org/dc/dcmitype/StillImage" />
        <dc:title></dc:title>
      </cc:Work>
    </rdf:RDF>
  </metadata>
  <defs
     id="defs4235" />
  <rect
     style="fill:#f7df1e"
     y="2.2737368e-013"
     x="-0.025003266"
     id="rect4229"
     height="630"
     width="1120.025" />
  <g
     style="display:none"
     id="layer1">
    <path
       id="path4231"
       d="m 808.44832,525.40013 c 7.92747,12.94383 18.2413,22.45804 36.48259,22.45804 15.32393,0 25.11301,-7.65885 25.11301,-18.2413 0,-12.68145 -10.0577,-17.17305 -26.92465,-24.55078 l -9.24558,-3.96686 c -26.68727,-11.36957 -44.4163,-25.61277 -44.4163,-55.7234 0,-27.73676 21.13366,-48.85168 54.16164,-48.85168 23.51378,0 40.41821,8.18359 52.5999,29.61086 l -28.79876,18.49118 c -6.34072,-11.36958 -13.1812,-15.84869 -23.80114,-15.84869 -10.83233,0 -17.6978,6.87172 -17.6978,15.84869 0,11.0947 6.87172,15.58631 22.73915,22.45803 l 9.24559,3.96061 c 31.4225,13.47482 49.16403,27.21201 49.16403,58.09727 0,33.29661 -26.15627,51.5379 -61.28325,51.5379 -34.34611,0 -56.53552,-16.36719 -67.39283,-37.81945 z m -130.64389,3.20473 c 5.80972,10.30758 11.0947,19.02217 23.80114,19.02217 12.15045,0 19.81554,-4.75398 19.81554,-23.23891 l 0,-125.75248 36.98235,0 0,126.25224 c 0,38.29422 -22.45179,55.7234 -55.22364,55.7234 -29.61087,0 -46.75894,-15.32393 -55.47977,-33.78075 z" />
  </g>
  <g
     id="layer2">
    <g
       id="text41261"
       style="font-style:normal;font-weight:normal;font-size:40px;line-height:125%;font-family:sans-serif;letter-spacing:0px;word-spacing:0px;fill:#000000;fill-opacity:1;stroke:none;stroke-width:1px;stroke-linecap:butt;stroke-linejoin:miter;stroke-opacity:1">
      <path
         id="path4147"
         style="font-style:normal;font-variant:normal;font-weight:bold;font-stretch:normal;font-size:240px;font-family:'Yanone Kaffeesatz';-inkscape-font-specification:'Yanone Kaffeesatz Bold'"
         d="m 609.42167,525.2343 c 0,18.24 -2.16,22.32 -12.48,22.32 -6.96,0 -14.64,-3.6 -19.2,-6.96 -1.44,3.36 -3.6,7.68 -3.6,14.64 0,8.16 3.6,16.08 26.64,16.08 26.16,0 36,-13.92 36,-40.8 l 0,-129.36 c -27.36,0 -27.36,0 -27.36,11.76 l 0,112.32 z" />
      <path
         id="path4149"
         style="font-style:normal;font-variant:normal;font-weight:bold;font-stretch:normal;font-size:240px;font-family:'Yanone Kaffeesatz';-inkscape-font-specification:'Yanone Kaffeesatz Bold'"
         d="m 690.19292,398.7543 c -28.32,0 -42.72,15.12 -42.72,36.72 0,10.56 2.4,20.64 13.44,35.28 l 21.84,29.28 c 8.4,11.04 10.8,17.28 10.8,25.44 0,11.28 -4.32,18.48 -17.52,18.48 -8.64,0 -17.28,-3.36 -22.32,-7.92 -4.08,6.24 -6,14.16 -6,19.44 0,8.4 9.84,16.08 31.44,16.08 34.8,0 43.68,-22.8 43.68,-46.8 0,-13.68 -2.88,-24.24 -14.4,-39.12 l -23.04,-29.52 c -6.24,-8.64 -8.64,-13.92 -8.64,-21.36 0,-8.4 7.2,-12.24 18.96,-12.24 9.12,0 18.24,2.88 20.88,4.8 4.56,-5.04 6.24,-10.56 6.24,-15.12 0,-8.4 -8.4,-13.44 -32.64,-13.44 z" />
      <path
         id="path4151"
         style="font-style:normal;font-variant:normal;font-weight:bold;font-stretch:normal;font-size:240px;font-family:'Yanone Kaffeesatz';-inkscape-font-specification:'Yanone Kaffeesatz Bold'"
         d="m 800.20292,525.2343 c 0,18.24 -2.16,22.32 -12.48,22.32 -6.96,0 -14.64,-3.6 -19.2,-6.96 -1.44,3.36 -3.6,7.68 -3.6,14.64 0,8.16 3.6,16.08 26.64,16.08 26.16,0 36,-13.92 36,-40.8 l 0,-129.36 c -27.36,0 -27.36,0 -27.36,11.76 l 0,112.32 z" />
      <path
         id="path4153"
         style="font-style:normal;font-variant:normal;font-weight:bold;font-stretch:normal;font-size:240px;font-family:'Yanone Kaffeesatz';-inkscape-font-specification:'Yanone Kaffeesatz Bold'"
         d="m 882.17417,446.7543 c -22.56,0 -42.24,10.08 -42.24,68.16 0,45.6 15.36,56.64 37.2,56.64 18.72,0 34.08,-5.28 34.08,-14.88 0,-5.52 -0.72,-13.2 -2.16,-18 -8.4,4.08 -16.8,6.72 -25.44,6.72 -11.52,0 -14.88,-6.72 -15.6,-21.84 11.76,-0.24 29.76,-1.2 41.52,-3.6 2.4,-9.36 3.36,-22.56 3.36,-34.08 0,-27.84 -11.52,-39.12 -30.72,-39.12 z m -3.6,23.28 c 6,0 8.16,2.4 8.16,17.76 0,3.84 -0.24,9.6 -1.2,12.48 -3.6,1.68 -11.04,2.16 -17.76,2.16 0.72,-21.84 3.36,-32.4 10.8,-32.4 z" />
      <path
         id="path4155"
         style="font-style:normal;font-variant:normal;font-weight:bold;font-stretch:normal;font-size:240px;font-family:'Yanone Kaffeesatz';-inkscape-font-specification:'Yanone Kaffeesatz Bold'"
         d="m 925.54292,569.1543 c 26.4,0 26.88,0 26.88,-4.8 l 0,-91.68 c 2.64,-1.92 6,-2.88 9.12,-2.88 6.72,0 7.92,3.84 7.92,16.32 l 0,83.04 c 27.12,0 27.84,0 27.84,-4.8 l 0,-86.64 c 0,-24 -10.32,-30.96 -34.56,-30.96 -12,0 -29.76,4.32 -37.2,7.92 l 0,114.48 z" />
      <path
         id="path4157"
         style="font-style:normal;font-variant:normal;font-weight:bold;font-stretch:normal;font-size:240px;font-family:'Yanone Kaffeesatz';-inkscape-font-specification:'Yanone Kaffeesatz Bold'"
         d="m 1009.6217,462.1143 c 0,3.84 0.72,10.08 3.6,15.6 7.92,-2.88 19.92,-5.04 28.8,-5.04 7.44,0 10.08,2.64 10.08,8.88 l 0,16.56 c -4.32,-2.88 -11.76,-3.6 -15.36,-3.6 -14.16,0 -27.6,6.72 -27.6,39.6 0,33.36 16.32,37.44 34.08,37.44 14.4,0 26.4,-2.88 34.56,-7.68 1.2,-17.76 1.2,-48.96 1.2,-76.56 l 0,-11.28 c 0,-21.6 -8.16,-29.28 -30.24,-29.28 -19.2,0 -32.4,4.32 -35.76,6.96 -2.16,1.68 -3.36,5.52 -3.36,8.4 z m 42.48,54 c 0,10.08 0,25.68 -0.48,30.96 -1.44,1.68 -4.32,2.4 -6.48,2.4 -6,0 -7.68,-4.56 -7.68,-16.08 0,-15.36 3.12,-19.2 8.4,-19.2 1.92,0 4.56,0.48 6.24,1.92 z" />
    </g>
  </g>
</svg>
