<?xml version="1.0" encoding="UTF-8" standalone="no"?>
<svg
   xmlns:dc="http://purl.org/dc/elements/1.1/"
   xmlns:cc="http://creativecommons.org/ns#"
   xmlns:rdf="http://www.w3.org/1999/02/22-rdf-syntax-ns#"
   xmlns:svg="http://www.w3.org/2000/svg"
   xmlns="http://www.w3.org/2000/svg"
   version="1.1"
   id="svg4227"
   viewBox="0 0 630 630">
  <metadata
     id="metadata4237">
    <rdf:RDF>
      <cc:Work
         rdf:about="">
        <dc:format>image/svg+xml</dc:format>
        <dc:type
           rdf:resource="http://purl.org/dc/dcmitype/StillImage" />
        <dc:title></dc:title>
      </cc:Work>
    </rdf:RDF>
  </metadata>
  <defs
     id="defs4235" />
  <g
     style="display:inline;opacity:1"
     id="layer2">
    <rect
       y="0"
       x="0"
       id="rect4229"
       height="630"
       width="630"
       style="fill:#f7df1e" />
  </g>
  <g
     style="display:none"
     id="layer3">
    <path
       style="fill:#000000;fill-opacity:1"
       id="path5438"
       d="m 423.2,492.19 c 12.69,20.72 29.2,35.95 58.4,35.95 24.53,0 40.2,-12.26 40.2,-29.2 0,-20.3 -16.1,-27.49 -43.1,-39.3 l -14.8,-6.35 c -42.72,-18.2 -71.1,-41 -71.1,-89.2 0,-44.4 33.83,-78.2 86.7,-78.2 37.64,0 64.7,13.1 84.2,47.4 l -46.1,29.6 c -10.15,-18.2 -21.1,-25.37 -38.1,-25.37 -17.34,0 -28.33,11 -28.33,25.37 0,17.76 11,24.95 36.4,35.95 l 14.8,6.34 c 50.3,21.57 78.7,43.56 78.7,93 0,53.3 -41.87,82.5 -98.1,82.5 -54.98,0 -90.5,-26.2 -107.88,-60.54 z m -209.13,5.13 c 9.3,16.5 17.76,30.45 38.1,30.45 19.45,0 31.72,-7.61 31.72,-37.2 l 0,-201.3 59.2,0 0,202.1 c 0,61.3 -35.94,89.2 -88.4,89.2 -47.4,0 -74.85,-24.53 -88.81,-54.075 z" />
  </g>
  <g
     id="layer5">
    <g
       id="text41261"
       style="font-style:normal;font-weight:normal;font-size:40px;line-height:73.00000191%;font-family:sans-serif;letter-spacing:0px;word-spacing:0px;display:inline;opacity:1;fill:#000000;fill-opacity:1;stroke:none;stroke-width:1px;stroke-linecap:butt;stroke-linejoin:miter;stroke-opacity:1">
      <path
         id="path4149"
         style="font-style:normal;font-variant:normal;font-weight:bold;font-stretch:normal;font-size:320px;font-family:'Yanone Kaffeesatz';-inkscape-font-specification:'Yanone Kaffeesatz Bold';fill:#000000;fill-opacity:1"
         d="m 424.23434,388.15365 c 0,24.32 -2.88,29.76 -16.64,29.76 -9.28,0 -19.52,-4.8 -25.6,-9.28 -1.92,4.48 -4.8,10.24 -4.8,19.52 0,10.88 4.8,21.44 35.52,21.44 34.88,0 48,-18.56 48,-54.4 l 0,-172.48 c -36.48,0 -36.48,0 -36.48,15.68 l 0,149.76 z" />
      <path
         id="path4151"
         style="font-style:normal;font-variant:normal;font-weight:bold;font-stretch:normal;font-size:320px;font-family:'Yanone Kaffeesatz';-inkscape-font-specification:'Yanone Kaffeesatz Bold';fill:#000000;fill-opacity:1"
         d="m 531.92934,219.51365 c -37.76,0 -56.96,20.16 -56.96,48.96 0,14.08 3.2,27.52 17.92,47.04 l 29.12,39.04 c 11.2,14.72 14.4,23.04 14.4,33.92 0,15.04 -5.76,24.64 -23.36,24.64 -11.52,0 -23.04,-4.48 -29.76,-10.56 -5.44,8.32 -8,18.88 -8,25.92 0,11.2 13.12,21.44 41.92,21.44 46.4,0 58.24,-30.4 58.24,-62.4 0,-18.24 -3.84,-32.32 -19.2,-52.16 l -30.72,-39.36 c -8.32,-11.52 -11.52,-18.56 -11.52,-28.48 0,-11.2 9.6,-16.32 25.28,-16.32 12.16,0 24.32,3.84 27.84,6.4 6.08,-6.72 8.32,-14.08 8.32,-20.16 0,-11.2 -11.2,-17.92 -43.52,-17.92 z" />
      <path
         id="path4153"
         style="font-style:normal;font-variant:normal;font-weight:bold;font-stretch:normal;font-size:160px;line-height:73.00000191%;font-family:'Yanone Kaffeesatz';-inkscape-font-specification:'Yanone Kaffeesatz Bold';fill:#000000;fill-opacity:1"
         d="m 397.51434,556.7861 c 0,12.16 -1.44,14.88 -8.32,14.88 -4.64,0 -9.76,-2.4 -12.8,-4.64 -0.96,2.24 -2.4,5.12 -2.4,9.76 0,5.44 2.4,10.72 17.76,10.72 17.44,0 24,-9.28 24,-27.2 l 0,-86.24 c -18.24,0 -18.24,0 -18.24,7.84 l 0,74.88 z" />
      <path
         id="path4155"
         style="font-style:normal;font-variant:normal;font-weight:bold;font-stretch:normal;font-size:160px;line-height:73.00000191%;font-family:'Yanone Kaffeesatz';-inkscape-font-specification:'Yanone Kaffeesatz Bold';fill:#000000;fill-opacity:1"
         d="m 452.16184,504.4661 c -15.04,0 -28.16,6.72 -28.16,45.44 0,30.4 10.24,37.76 24.8,37.76 12.48,0 22.72,-3.52 22.72,-9.92 0,-3.68 -0.48,-8.8 -1.44,-12 -5.6,2.72 -11.2,4.48 -16.96,4.48 -7.68,0 -9.92,-4.48 -10.4,-14.56 7.84,-0.16 19.84,-0.8 27.68,-2.4 1.6,-6.24 2.24,-15.04 2.24,-22.72 0,-18.56 -7.68,-26.08 -20.48,-26.08 z m -2.4,15.52 c 4,0 5.44,1.6 5.44,11.84 0,2.56 -0.16,6.4 -0.8,8.32 -2.4,1.12 -7.36,1.44 -11.84,1.44 0.48,-14.56 2.24,-21.6 7.2,-21.6 z" />
      <path
         id="path4157"
         style="font-style:normal;font-variant:normal;font-weight:bold;font-stretch:normal;font-size:160px;line-height:73.00000191%;font-family:'Yanone Kaffeesatz';-inkscape-font-specification:'Yanone Kaffeesatz Bold';fill:#000000;fill-opacity:1"
         d="m 481.07434,586.0661 c 17.6,0 17.92,0 17.92,-3.2 l 0,-61.12 c 1.76,-1.28 4,-1.92 6.08,-1.92 4.48,0 5.28,2.56 5.28,10.88 l 0,55.36 c 18.08,0 18.56,0 18.56,-3.2 l 0,-57.76 c 0,-16 -6.88,-20.64 -23.04,-20.64 -8,0 -19.84,2.88 -24.8,5.28 l 0,76.32 z" />
      <path
         id="path4159"
         style="font-style:normal;font-variant:normal;font-weight:bold;font-stretch:normal;font-size:160px;line-height:73.00000191%;font-family:'Yanone Kaffeesatz';-inkscape-font-specification:'Yanone Kaffeesatz Bold';fill:#000000;fill-opacity:1"
         d="m 537.12684,514.7061 c 0,2.56 0.48,6.72 2.4,10.4 5.28,-1.92 13.28,-3.36 19.2,-3.36 4.96,0 6.72,1.76 6.72,5.92 l 0,11.04 c -2.88,-1.92 -7.84,-2.4 -10.24,-2.4 -9.44,0 -18.4,4.48 -18.4,26.4 0,22.24 10.88,24.96 22.72,24.96 9.6,0 17.6,-1.92 23.04,-5.12 0.8,-11.84 0.8,-32.64 0.8,-51.04 l 0,-7.52 c 0,-14.4 -5.44,-19.52 -20.16,-19.52 -12.8,0 -21.6,2.88 -23.84,4.64 -1.44,1.12 -2.24,3.68 -2.24,5.6 z m 28.32,36 c 0,6.72 0,17.12 -0.32,20.64 -0.96,1.12 -2.88,1.6 -4.32,1.6 -4,0 -5.12,-3.04 -5.12,-10.72 0,-10.24 2.08,-12.8 5.6,-12.8 1.28,0 3.04,0.32 4.16,1.28 z" />
    </g>
  </g>
</svg>
